<?xml version="1.0" encoding="UTF-8" standalone="no"?>
<!DOCTYPE svg PUBLIC "-//W3C//DTD SVG 1.1//EN" "http://www.w3.org/Graphics/SVG/1.1/DTD/svg11.dtd">
<svg width="100%" height="100%" viewBox="0 0 215 215" version="1.1" xmlns="http://www.w3.org/2000/svg" xmlns:xlink="http://www.w3.org/1999/xlink" xml:space="preserve" xmlns:serif="http://www.serif.com/" style="fill-rule:evenodd;clip-rule:evenodd;stroke-linejoin:round;stroke-miterlimit:2;">
    <g transform="matrix(1,0,0,1,-34.8827,-2.33313)">
        <g transform="matrix(0.311341,-0.0268847,0.0268847,0.311341,130,86.4544)">
            <g transform="matrix(1,0,0,1,-256,-256)">
                <clipPath id="_clip1">
                    <rect x="0" y="0" width="512" height="512"/>
                </clipPath>
                <g clip-path="url(#_clip1)">
                    <path d="M278.242,39.094C278.242,55.391 265.031,68.602 248.734,68.602C232.438,68.602 219.227,55.391 219.227,39.094C219.227,22.797 232.438,9.586 248.734,9.586C265.031,9.586 278.242,22.797 278.242,39.094Z" style="fill:rgb(229,80,69);fill-rule:nonzero;"/>
                    <path d="M248.734,9.586C244.168,9.586 239.844,10.621 235.984,12.473C245.898,17.23 252.742,27.363 252.742,39.094C252.742,50.824 245.898,60.953 235.984,65.711C239.844,67.562 244.168,68.602 248.734,68.602C265.031,68.602 278.242,55.391 278.242,39.094C278.242,22.797 265.031,9.586 248.734,9.586Z" style="fill:rgb(196,55,48);fill-rule:nonzero;"/>
                    <path d="M109,264.957C109.274,254.762 119.246,240.367 128.727,228.172C147.887,203.523 184.922,203.801 205.625,203.031C243.535,201.625 297.59,194.094 368.66,166.801C373.574,168.754 396.84,178.594 406.371,203.402C407.406,206.098 416.019,229.367 406.551,246.039C391.101,273.238 338.031,264.398 241.113,262.738C189.918,261.863 139.336,263.344 109,264.957Z" style="fill:rgb(255,113,191);fill-rule:nonzero;"/>
                    <path d="M109.156,263.094C109.07,263.726 109.016,264.351 109,264.957C127.844,263.957 154.508,263.004 184.273,262.637C157.941,262.293 132.008,262.543 109.156,263.094Z" style="fill:rgb(247,92,155);fill-rule:nonzero;"/>
                    <path d="M406.371,203.402C396.84,178.594 373.574,168.754 368.66,166.801C357.887,170.937 347.512,174.617 337.516,177.894C344.625,183.664 351.969,191.93 356.379,203.402C357.414,206.101 366.027,229.371 356.555,246.043C349.535,258.406 334.738,263.32 311.59,264.851C364.5,266.535 395.375,265.719 406.551,246.043C416.019,229.367 407.406,206.101 406.371,203.402Z" style="fill:rgb(247,92,155);fill-rule:nonzero;"/>
                    <path d="M137.234,178.289C133.098,173.047 125.863,162.242 125.172,147.676C124.191,127.066 136.969,112.008 141.293,106.91C175.656,66.41 230.875,91.008 264.961,55.336C273.016,46.906 282.125,32.77 285.137,7.902C285.871,1.836 292.336,-1.684 297.914,0.809C309.207,5.855 325.262,15.961 333.539,34.82C341.996,54.09 337.73,72.008 334.832,84.176C333.039,91.715 325.551,119.215 300.309,138.785C294.852,143.012 290.281,145.543 264.961,155.711C192.789,184.691 172.441,187.359 152.387,182.883C145.883,181.433 140.668,179.617 137.234,178.289Z" style="fill:rgb(255,113,191);fill-rule:nonzero;"/>
                    <path d="M333.539,34.816C325.262,15.957 309.207,5.852 297.914,0.809C292.336,-1.684 285.871,1.836 285.137,7.898C283.75,19.363 281.062,28.543 277.785,35.937C285.598,54.781 281.449,72.242 278.609,84.172C276.816,91.711 269.324,119.215 244.082,138.781C238.629,143.012 234.059,145.543 208.738,155.711C178.34,167.914 157.137,175.453 141.277,179.754C144.32,180.793 148.059,181.918 152.387,182.883C172.441,187.359 192.789,184.691 264.961,155.711C290.281,145.543 294.852,143.012 300.309,138.785C325.551,119.215 333.039,91.715 334.832,84.172C337.73,72.008 341.996,54.09 333.539,34.816Z" style="fill:rgb(247,92,155);fill-rule:nonzero;"/>
                    <path d="M110.793,259.965C105.746,254.461 93.305,239.383 95.442,221.004C95.988,216.305 98.141,205.793 110.402,193.726C146.926,157.781 209.852,170.367 268.777,141.07C286.074,132.473 310.707,116.449 334.832,84.176C339.207,85.844 345.262,88.766 351.672,93.582C359.359,99.355 367.719,108.098 372.543,120.773C373.312,122.801 381.391,144.801 372.723,163.414C354.894,201.68 274.426,208.156 207.063,213.574C180.348,215.723 142.859,217.203 120.59,244.07C115.641,250.043 112.613,255.863 110.793,259.965Z" style="fill:rgb(255,210,239);fill-rule:nonzero;"/>
                    <path d="M372.543,120.773C367.719,108.094 359.359,99.355 351.672,93.582C345.262,88.766 339.207,85.844 334.832,84.172C328.387,92.797 321.906,100.246 315.539,106.719C318.531,110.75 321.211,115.406 323.254,120.773C324.023,122.801 332.102,144.797 323.434,163.414C305.605,201.68 225.137,208.152 157.774,213.574C139.211,215.066 115.453,216.246 95.207,225.832C95.469,241.996 106.195,254.953 110.793,259.965C112.609,255.863 115.637,250.043 120.59,244.07C142.859,217.199 180.348,215.723 207.059,213.574C274.426,208.152 354.894,201.68 372.719,163.414C381.394,144.801 373.316,122.801 372.543,120.773Z" style="fill:rgb(255,185,239);fill-rule:nonzero;"/>
                    <path d="M434.371,329.23L76.801,329.23L76.801,281.879C76.801,268.613 87.555,257.855 100.824,257.855L410.344,257.855C423.613,257.855 434.371,268.613 434.371,281.879L434.371,329.23Z" style="fill:rgb(135,105,84);fill-rule:nonzero;"/>
                    <path d="M410.344,257.855L352.816,257.855C366.086,257.855 376.84,268.613 376.84,281.879L376.84,329.23L434.371,329.23L434.371,281.879C434.371,268.613 423.613,257.855 410.344,257.855Z" style="fill:rgb(112,82,69);fill-rule:nonzero;"/>
                    <path d="M448.109,288.578L417.914,481.586C415.183,499.097 400.105,512 382.379,512L128.809,512C111.094,512 96.016,499.097 93.277,481.586L63.059,288.578C62.524,285.137 65.77,282.281 69.109,283.269C81.824,287.043 84.277,300.644 100.934,300.644C120.258,300.644 120.258,282.32 139.59,282.32C158.914,282.32 158.914,300.644 178.238,300.644C197.574,300.644 197.574,282.32 216.898,282.32C236.23,282.32 236.23,300.644 255.555,300.644C274.887,300.644 274.887,282.32 294.211,282.32C313.547,282.32 313.547,300.644 332.879,300.644C352.203,300.644 352.203,282.32 371.539,282.32C390.871,282.32 390.871,300.644 410.207,300.644C426.859,300.644 429.324,287.043 442.062,283.269C445.398,282.281 448.648,285.137 448.109,288.578Z" style="fill:rgb(255,225,112);fill-rule:nonzero;"/>
                    <g>
                        <path d="M263.324,512L247.867,512L247.836,329.234C247.824,324.957 251.289,321.504 255.555,321.504L255.563,321.504C259.832,321.504 263.281,324.957 263.293,329.222L263.324,512Z" style="fill:rgb(255,154,45);fill-rule:nonzero;"/>
                        <path d="M209.98,512L194.5,512L186.141,329.586C185.945,325.316 189.246,321.699 193.512,321.504C197.777,321.308 201.395,324.605 201.59,328.875L209.969,511.648C209.969,511.761 209.98,511.886 209.98,512Z" style="fill:rgb(255,154,45);fill-rule:nonzero;"/>
                        <path d="M156.617,512L141.125,512L123.711,326.051C123.316,321.804 126.441,318.031 130.688,317.629C134.922,317.226 138.703,320.359 139.106,324.605L156.586,511.277C156.606,511.515 156.617,511.761 156.617,512Z" style="fill:rgb(255,154,45);fill-rule:nonzero;"/>
                        <path d="M325.055,329.586L316.699,512L301.219,512C301.219,511.875 301.219,511.773 301.227,511.648L309.609,328.875C309.805,324.605 313.43,321.32 317.687,321.504C321.945,321.699 325.242,325.316 325.055,329.586Z" style="fill:rgb(255,154,45);fill-rule:nonzero;"/>
                        <path d="M387.121,329.945L370.074,512L354.582,512C354.582,511.761 354.594,511.515 354.613,511.281L371.723,328.512C372.125,324.258 375.887,321.133 380.141,321.535C384.387,321.926 387.512,325.699 387.121,329.945Z" style="fill:rgb(255,154,45);fill-rule:nonzero;"/>
                    </g>
                </g>
            </g>
        </g>
        <g transform="matrix(1,0,0,1,2.65258,-39.8109)">
            <g transform="matrix(1,0,0,1,2.20711,16.9056)">
                <g transform="matrix(34.8005,-12.5668,12.5668,34.8005,42.5585,232.109)">
                    <path d="M0.419,0.012C0.377,0.012 0.338,0.007 0.302,-0.002C0.266,-0.012 0.233,-0.025 0.204,-0.042C0.175,-0.06 0.15,-0.08 0.127,-0.104C0.105,-0.128 0.087,-0.154 0.072,-0.182C0.057,-0.21 0.045,-0.24 0.038,-0.272C0.03,-0.304 0.026,-0.337 0.026,-0.37C0.026,-0.409 0.03,-0.446 0.036,-0.481C0.043,-0.517 0.053,-0.55 0.067,-0.582C0.082,-0.613 0.1,-0.641 0.123,-0.667C0.146,-0.693 0.174,-0.715 0.206,-0.733C0.239,-0.752 0.276,-0.766 0.319,-0.776C0.362,-0.786 0.411,-0.791 0.465,-0.791C0.501,-0.791 0.536,-0.786 0.568,-0.776C0.601,-0.767 0.629,-0.753 0.654,-0.735C0.679,-0.717 0.698,-0.695 0.713,-0.669C0.727,-0.643 0.734,-0.614 0.734,-0.582C0.734,-0.569 0.732,-0.557 0.728,-0.547C0.724,-0.536 0.719,-0.528 0.711,-0.521C0.704,-0.513 0.695,-0.508 0.685,-0.504C0.675,-0.5 0.665,-0.498 0.653,-0.498C0.643,-0.498 0.633,-0.5 0.623,-0.503C0.613,-0.506 0.603,-0.512 0.594,-0.519C0.585,-0.527 0.577,-0.537 0.57,-0.549C0.562,-0.561 0.556,-0.576 0.552,-0.594C0.546,-0.62 0.536,-0.639 0.522,-0.652C0.508,-0.665 0.493,-0.672 0.478,-0.672C0.465,-0.672 0.454,-0.668 0.442,-0.661C0.43,-0.653 0.419,-0.642 0.41,-0.626C0.401,-0.611 0.393,-0.591 0.387,-0.567C0.381,-0.544 0.378,-0.515 0.378,-0.483C0.378,-0.44 0.381,-0.403 0.386,-0.371C0.391,-0.339 0.397,-0.312 0.406,-0.29C0.415,-0.267 0.425,-0.249 0.436,-0.234C0.448,-0.22 0.46,-0.209 0.474,-0.201C0.487,-0.193 0.501,-0.187 0.515,-0.184C0.529,-0.181 0.544,-0.179 0.558,-0.179C0.573,-0.179 0.587,-0.181 0.601,-0.184C0.615,-0.188 0.628,-0.192 0.639,-0.197C0.651,-0.202 0.661,-0.207 0.669,-0.213C0.677,-0.219 0.684,-0.224 0.688,-0.229C0.692,-0.236 0.698,-0.24 0.703,-0.243C0.709,-0.247 0.714,-0.248 0.719,-0.248C0.728,-0.248 0.736,-0.243 0.743,-0.234C0.749,-0.224 0.752,-0.211 0.752,-0.195C0.752,-0.169 0.744,-0.143 0.728,-0.119C0.712,-0.094 0.689,-0.072 0.66,-0.052C0.631,-0.033 0.596,-0.017 0.555,-0.006C0.514,0.006 0.469,0.012 0.419,0.012Z" style="fill:rgb(255,210,239);fill-rule:nonzero;stroke:rgb(247,92,155);stroke-width:0.26px;"/>
                </g>
                <g transform="matrix(36.0895,-8.15749,8.15749,36.0895,64.1832,223.862)">
                    <path d="M0.56,-0.445C0.56,-0.458 0.558,-0.469 0.555,-0.476C0.551,-0.484 0.547,-0.489 0.541,-0.493C0.536,-0.497 0.53,-0.499 0.524,-0.501C0.518,-0.502 0.512,-0.504 0.507,-0.505C0.501,-0.507 0.497,-0.509 0.493,-0.512C0.49,-0.516 0.488,-0.521 0.488,-0.528C0.488,-0.565 0.507,-0.592 0.545,-0.608C0.584,-0.625 0.639,-0.633 0.712,-0.633C0.736,-0.633 0.757,-0.631 0.773,-0.626C0.79,-0.621 0.804,-0.615 0.815,-0.607C0.826,-0.599 0.834,-0.589 0.84,-0.578C0.846,-0.566 0.851,-0.554 0.853,-0.54C0.856,-0.526 0.858,-0.511 0.858,-0.496C0.859,-0.48 0.859,-0.464 0.859,-0.447L0.859,-0.185C0.859,-0.172 0.861,-0.162 0.864,-0.155C0.867,-0.148 0.872,-0.142 0.877,-0.138C0.883,-0.135 0.888,-0.132 0.894,-0.131C0.9,-0.13 0.906,-0.128 0.911,-0.126C0.917,-0.125 0.921,-0.122 0.925,-0.119C0.928,-0.116 0.93,-0.111 0.93,-0.104C0.93,-0.067 0.911,-0.04 0.873,-0.024C0.836,-0.007 0.782,0.001 0.712,0.001C0.695,0.001 0.679,-0 0.666,-0.003C0.653,-0.006 0.641,-0.009 0.631,-0.013C0.621,-0.017 0.613,-0.022 0.605,-0.028C0.598,-0.033 0.592,-0.039 0.587,-0.044C0.576,-0.057 0.569,-0.073 0.566,-0.09C0.549,-0.071 0.529,-0.054 0.506,-0.039C0.496,-0.032 0.485,-0.026 0.473,-0.02C0.46,-0.014 0.447,-0.008 0.432,-0.004C0.417,0.001 0.402,0.005 0.385,0.008C0.367,0.011 0.349,0.012 0.33,0.012C0.294,0.012 0.263,0.008 0.237,-0.001C0.211,-0.01 0.189,-0.022 0.171,-0.037C0.153,-0.052 0.139,-0.069 0.127,-0.089C0.116,-0.109 0.108,-0.13 0.102,-0.152C0.095,-0.174 0.091,-0.196 0.089,-0.218C0.087,-0.24 0.086,-0.262 0.086,-0.282L0.086,-0.442C0.086,-0.456 0.084,-0.467 0.081,-0.474C0.077,-0.482 0.072,-0.488 0.067,-0.492C0.061,-0.496 0.056,-0.499 0.049,-0.5C0.043,-0.502 0.037,-0.503 0.032,-0.505C0.026,-0.507 0.022,-0.509 0.018,-0.512C0.014,-0.516 0.013,-0.521 0.013,-0.528C0.013,-0.565 0.032,-0.592 0.07,-0.608C0.109,-0.625 0.164,-0.633 0.237,-0.633C0.269,-0.633 0.295,-0.629 0.314,-0.621C0.333,-0.613 0.348,-0.603 0.358,-0.589C0.368,-0.576 0.375,-0.56 0.377,-0.541C0.38,-0.522 0.382,-0.502 0.382,-0.481L0.382,-0.24C0.382,-0.22 0.383,-0.202 0.386,-0.186C0.39,-0.17 0.395,-0.157 0.402,-0.146C0.409,-0.134 0.419,-0.126 0.431,-0.12C0.443,-0.115 0.458,-0.112 0.476,-0.112C0.487,-0.112 0.498,-0.114 0.508,-0.117C0.518,-0.121 0.527,-0.126 0.535,-0.132C0.542,-0.139 0.548,-0.147 0.552,-0.156C0.557,-0.164 0.559,-0.174 0.559,-0.185L0.56,-0.445Z" style="fill:rgb(255,210,239);fill-rule:nonzero;stroke:rgb(247,92,155);stroke-width:0.26px;"/>
                </g>
                <g transform="matrix(36.6819,-4.84168,4.84168,36.6819,93.1434,217.226)">
                    <path d="M0.813,-0.313C0.813,-0.288 0.811,-0.263 0.808,-0.237C0.805,-0.211 0.799,-0.186 0.792,-0.162C0.785,-0.138 0.775,-0.115 0.762,-0.094C0.75,-0.073 0.734,-0.055 0.716,-0.039C0.698,-0.023 0.676,-0.011 0.651,-0.001C0.625,0.008 0.596,0.012 0.563,0.012C0.526,0.012 0.494,0.008 0.468,0C0.441,-0.007 0.418,-0.017 0.399,-0.028L0.399,0.086C0.399,0.1 0.401,0.11 0.404,0.117C0.408,0.125 0.412,0.13 0.417,0.134C0.423,0.138 0.428,0.14 0.435,0.142C0.441,0.143 0.447,0.145 0.452,0.146C0.457,0.148 0.462,0.15 0.465,0.154C0.469,0.157 0.471,0.162 0.471,0.169C0.471,0.206 0.451,0.233 0.413,0.249C0.375,0.266 0.319,0.274 0.247,0.274C0.212,0.274 0.181,0.272 0.154,0.268C0.127,0.264 0.104,0.258 0.085,0.249C0.067,0.241 0.053,0.23 0.043,0.217C0.034,0.203 0.029,0.188 0.029,0.169C0.029,0.162 0.031,0.157 0.034,0.154C0.037,0.15 0.042,0.148 0.047,0.146C0.052,0.145 0.058,0.143 0.064,0.142C0.07,0.141 0.076,0.138 0.081,0.135C0.087,0.131 0.091,0.125 0.094,0.118C0.098,0.111 0.1,0.101 0.1,0.088L0.1,-0.447C0.1,-0.46 0.098,-0.47 0.094,-0.477C0.091,-0.484 0.087,-0.49 0.081,-0.493C0.076,-0.497 0.07,-0.5 0.064,-0.501C0.058,-0.502 0.052,-0.504 0.047,-0.505C0.042,-0.507 0.037,-0.509 0.034,-0.512C0.031,-0.516 0.029,-0.521 0.029,-0.528C0.029,-0.546 0.034,-0.562 0.043,-0.575C0.053,-0.589 0.067,-0.6 0.085,-0.608C0.104,-0.617 0.127,-0.623 0.154,-0.627C0.181,-0.631 0.212,-0.633 0.247,-0.633C0.285,-0.633 0.314,-0.63 0.335,-0.625C0.355,-0.619 0.37,-0.609 0.38,-0.595C0.389,-0.602 0.399,-0.609 0.411,-0.615C0.423,-0.621 0.436,-0.626 0.451,-0.631C0.466,-0.636 0.482,-0.64 0.5,-0.643C0.518,-0.646 0.538,-0.647 0.561,-0.647C0.593,-0.647 0.623,-0.642 0.648,-0.633C0.673,-0.623 0.695,-0.611 0.714,-0.594C0.733,-0.578 0.748,-0.559 0.761,-0.538C0.774,-0.516 0.784,-0.493 0.791,-0.468C0.799,-0.443 0.804,-0.417 0.808,-0.391C0.811,-0.365 0.813,-0.339 0.813,-0.313ZM0.399,-0.125C0.406,-0.122 0.413,-0.12 0.42,-0.119C0.427,-0.118 0.434,-0.117 0.442,-0.117C0.46,-0.117 0.474,-0.12 0.484,-0.126C0.494,-0.131 0.501,-0.142 0.505,-0.156C0.51,-0.171 0.513,-0.191 0.513,-0.216C0.514,-0.241 0.515,-0.273 0.515,-0.311C0.515,-0.351 0.513,-0.385 0.51,-0.412C0.507,-0.44 0.503,-0.461 0.496,-0.477C0.49,-0.493 0.481,-0.505 0.471,-0.512C0.46,-0.519 0.448,-0.522 0.433,-0.522C0.427,-0.522 0.421,-0.521 0.415,-0.521C0.409,-0.52 0.404,-0.518 0.399,-0.516C0.4,-0.506 0.4,-0.495 0.4,-0.484L0.4,-0.447L0.399,-0.125Z" style="fill:rgb(255,210,239);fill-rule:nonzero;stroke:rgb(247,92,155);stroke-width:0.26px;"/>
                </g>
                <g transform="matrix(36.91,-2.57974,2.57974,36.91,120.218,213.665)">
                    <path d="M0.356,-0.647C0.404,-0.647 0.446,-0.642 0.48,-0.631C0.515,-0.62 0.543,-0.606 0.565,-0.587C0.587,-0.569 0.603,-0.548 0.613,-0.523C0.623,-0.499 0.628,-0.473 0.628,-0.446C0.628,-0.434 0.626,-0.424 0.623,-0.416C0.619,-0.407 0.614,-0.399 0.608,-0.393C0.602,-0.387 0.595,-0.382 0.586,-0.379C0.578,-0.376 0.569,-0.374 0.559,-0.374C0.551,-0.374 0.542,-0.375 0.533,-0.378C0.524,-0.381 0.516,-0.386 0.508,-0.393C0.5,-0.399 0.493,-0.408 0.487,-0.418C0.481,-0.428 0.476,-0.441 0.473,-0.456C0.471,-0.467 0.467,-0.476 0.461,-0.484C0.456,-0.493 0.45,-0.499 0.444,-0.505C0.437,-0.511 0.43,-0.515 0.422,-0.518C0.414,-0.521 0.406,-0.522 0.398,-0.522C0.384,-0.522 0.372,-0.519 0.362,-0.513C0.351,-0.507 0.343,-0.499 0.336,-0.488C0.329,-0.476 0.324,-0.463 0.321,-0.447C0.318,-0.43 0.316,-0.412 0.316,-0.392C0.316,-0.314 0.328,-0.256 0.351,-0.219C0.375,-0.181 0.413,-0.162 0.465,-0.162C0.48,-0.162 0.495,-0.164 0.511,-0.168C0.526,-0.172 0.541,-0.177 0.554,-0.182C0.568,-0.187 0.579,-0.191 0.589,-0.195C0.599,-0.199 0.605,-0.201 0.609,-0.201C0.616,-0.201 0.622,-0.198 0.626,-0.192C0.631,-0.185 0.633,-0.178 0.633,-0.17C0.633,-0.167 0.633,-0.165 0.633,-0.163C0.632,-0.16 0.632,-0.158 0.631,-0.156C0.621,-0.132 0.608,-0.109 0.591,-0.089C0.574,-0.069 0.553,-0.051 0.529,-0.036C0.505,-0.021 0.478,-0.009 0.448,-0C0.417,0.008 0.385,0.012 0.349,0.012C0.313,0.012 0.279,0.008 0.249,-0.001C0.219,-0.009 0.191,-0.021 0.167,-0.037C0.143,-0.052 0.122,-0.07 0.104,-0.091C0.086,-0.112 0.071,-0.135 0.058,-0.159C0.046,-0.184 0.037,-0.21 0.031,-0.237C0.025,-0.263 0.022,-0.291 0.022,-0.318C0.022,-0.346 0.025,-0.373 0.031,-0.4C0.037,-0.427 0.047,-0.453 0.059,-0.478C0.071,-0.502 0.087,-0.524 0.105,-0.545C0.124,-0.566 0.146,-0.584 0.17,-0.599C0.195,-0.614 0.223,-0.626 0.254,-0.634C0.285,-0.643 0.319,-0.647 0.356,-0.647Z" style="fill:rgb(255,210,239);fill-rule:nonzero;stroke:rgb(247,92,155);stroke-width:0.26px;"/>
                </g>
                <g transform="matrix(36.992,-0.768559,0.768559,36.992,140.461,212.112)">
                    <path d="M0.35,-0.1C0.361,-0.1 0.37,-0.102 0.376,-0.105C0.383,-0.109 0.388,-0.114 0.392,-0.12C0.395,-0.126 0.398,-0.134 0.399,-0.143C0.4,-0.153 0.4,-0.163 0.4,-0.175C0.4,-0.185 0.4,-0.198 0.4,-0.213C0.4,-0.229 0.399,-0.244 0.399,-0.259C0.398,-0.277 0.398,-0.295 0.397,-0.314C0.393,-0.315 0.389,-0.315 0.385,-0.316C0.38,-0.316 0.376,-0.316 0.373,-0.316C0.356,-0.316 0.342,-0.313 0.331,-0.306C0.32,-0.3 0.311,-0.29 0.304,-0.279C0.297,-0.267 0.292,-0.253 0.289,-0.237C0.287,-0.22 0.285,-0.203 0.285,-0.184C0.285,-0.173 0.286,-0.162 0.287,-0.152C0.288,-0.141 0.291,-0.132 0.296,-0.125C0.3,-0.117 0.307,-0.111 0.316,-0.107C0.324,-0.102 0.336,-0.1 0.35,-0.1ZM0.585,-0C0.569,-0 0.552,-0.001 0.536,-0.003C0.519,-0.004 0.504,-0.008 0.489,-0.014C0.474,-0.019 0.461,-0.027 0.448,-0.038C0.436,-0.048 0.425,-0.062 0.417,-0.079C0.41,-0.064 0.399,-0.05 0.385,-0.039C0.371,-0.028 0.354,-0.018 0.336,-0.01C0.317,-0.003 0.298,0.003 0.278,0.007C0.257,0.01 0.238,0.012 0.219,0.012C0.186,0.012 0.158,0.008 0.133,0C0.108,-0.007 0.087,-0.018 0.07,-0.033C0.053,-0.047 0.041,-0.065 0.032,-0.085C0.024,-0.105 0.02,-0.128 0.02,-0.153C0.02,-0.182 0.024,-0.211 0.034,-0.237C0.044,-0.264 0.061,-0.287 0.085,-0.307C0.109,-0.326 0.141,-0.342 0.181,-0.354C0.221,-0.365 0.271,-0.371 0.332,-0.371L0.398,-0.371C0.398,-0.407 0.397,-0.437 0.395,-0.461C0.392,-0.485 0.389,-0.504 0.383,-0.518C0.378,-0.532 0.372,-0.541 0.364,-0.547C0.356,-0.552 0.347,-0.555 0.335,-0.555C0.323,-0.555 0.313,-0.551 0.304,-0.544C0.296,-0.536 0.289,-0.526 0.284,-0.511C0.279,-0.497 0.276,-0.48 0.274,-0.46C0.272,-0.44 0.271,-0.417 0.271,-0.392C0.257,-0.392 0.242,-0.392 0.226,-0.393C0.211,-0.393 0.196,-0.395 0.18,-0.396C0.165,-0.398 0.151,-0.401 0.137,-0.406C0.124,-0.41 0.112,-0.415 0.102,-0.422C0.091,-0.429 0.083,-0.438 0.077,-0.449C0.07,-0.459 0.067,-0.472 0.067,-0.488C0.067,-0.509 0.073,-0.53 0.084,-0.549C0.095,-0.568 0.113,-0.585 0.136,-0.599C0.159,-0.614 0.189,-0.625 0.225,-0.634C0.26,-0.643 0.303,-0.647 0.353,-0.647C0.41,-0.647 0.46,-0.641 0.501,-0.629C0.543,-0.618 0.577,-0.6 0.604,-0.577C0.631,-0.553 0.651,-0.524 0.664,-0.488C0.677,-0.452 0.683,-0.411 0.683,-0.363L0.683,-0.19C0.683,-0.176 0.685,-0.165 0.689,-0.157C0.692,-0.149 0.697,-0.143 0.702,-0.139C0.708,-0.135 0.714,-0.132 0.72,-0.131C0.727,-0.129 0.733,-0.128 0.738,-0.126C0.743,-0.124 0.748,-0.122 0.752,-0.118C0.755,-0.115 0.757,-0.11 0.757,-0.103C0.757,-0.07 0.743,-0.045 0.714,-0.027C0.684,-0.009 0.642,-0 0.585,-0Z" style="fill:rgb(255,210,239);fill-rule:nonzero;stroke:rgb(247,92,155);stroke-width:0.26px;"/>
                </g>
                <g transform="matrix(36.9832,1.11548,-1.11548,36.9832,164.843,211.437)">
                    <path d="M0.569,-0.466C0.576,-0.471 0.581,-0.476 0.583,-0.481C0.586,-0.486 0.587,-0.49 0.587,-0.493C0.587,-0.498 0.584,-0.502 0.579,-0.506C0.573,-0.511 0.567,-0.515 0.56,-0.52C0.553,-0.524 0.547,-0.529 0.542,-0.534C0.536,-0.539 0.533,-0.545 0.533,-0.551C0.533,-0.568 0.538,-0.582 0.549,-0.593C0.559,-0.604 0.572,-0.612 0.588,-0.618C0.604,-0.624 0.622,-0.628 0.641,-0.63C0.661,-0.632 0.68,-0.633 0.698,-0.633C0.725,-0.633 0.749,-0.631 0.768,-0.628C0.788,-0.625 0.803,-0.621 0.816,-0.614C0.828,-0.607 0.837,-0.599 0.842,-0.588C0.847,-0.578 0.85,-0.565 0.85,-0.551C0.85,-0.541 0.848,-0.534 0.844,-0.529C0.84,-0.524 0.835,-0.519 0.828,-0.516C0.821,-0.513 0.813,-0.51 0.804,-0.508C0.795,-0.506 0.786,-0.503 0.775,-0.5C0.765,-0.496 0.754,-0.492 0.743,-0.487C0.733,-0.482 0.722,-0.475 0.711,-0.466L0.638,-0.404L0.791,-0.179C0.799,-0.168 0.807,-0.159 0.816,-0.154C0.825,-0.149 0.833,-0.145 0.842,-0.142C0.851,-0.14 0.86,-0.138 0.868,-0.137C0.876,-0.137 0.883,-0.135 0.889,-0.134C0.896,-0.132 0.901,-0.129 0.905,-0.126C0.908,-0.122 0.91,-0.116 0.91,-0.107C0.91,-0.088 0.906,-0.071 0.898,-0.058C0.89,-0.044 0.878,-0.033 0.862,-0.024C0.846,-0.016 0.826,-0.01 0.802,-0.006C0.778,-0.002 0.751,-0 0.72,-0C0.684,-0 0.656,-0.002 0.634,-0.006C0.613,-0.009 0.596,-0.015 0.584,-0.021C0.572,-0.028 0.563,-0.036 0.558,-0.045C0.553,-0.054 0.549,-0.064 0.546,-0.075C0.543,-0.087 0.54,-0.099 0.537,-0.111C0.533,-0.124 0.528,-0.137 0.519,-0.15L0.447,-0.263C0.446,-0.264 0.445,-0.266 0.443,-0.268C0.442,-0.269 0.439,-0.271 0.436,-0.272C0.432,-0.274 0.428,-0.275 0.422,-0.276C0.416,-0.276 0.408,-0.277 0.399,-0.277L0.399,-0.188C0.399,-0.175 0.401,-0.164 0.404,-0.157C0.408,-0.149 0.412,-0.144 0.418,-0.14C0.423,-0.136 0.429,-0.134 0.435,-0.132C0.441,-0.131 0.447,-0.129 0.452,-0.127C0.458,-0.126 0.462,-0.123 0.466,-0.12C0.469,-0.117 0.471,-0.112 0.471,-0.105C0.471,-0.068 0.452,-0.041 0.414,-0.025C0.375,-0.008 0.32,-0 0.247,-0C0.212,-0 0.181,-0.002 0.154,-0.006C0.127,-0.01 0.104,-0.016 0.085,-0.025C0.067,-0.033 0.053,-0.044 0.043,-0.057C0.034,-0.071 0.029,-0.086 0.029,-0.105C0.029,-0.112 0.031,-0.117 0.034,-0.12C0.038,-0.123 0.042,-0.126 0.047,-0.127C0.053,-0.129 0.058,-0.131 0.064,-0.132C0.071,-0.133 0.076,-0.136 0.082,-0.139C0.087,-0.143 0.091,-0.149 0.095,-0.156C0.098,-0.163 0.1,-0.173 0.1,-0.186L0.1,-0.735C0.1,-0.748 0.098,-0.758 0.095,-0.765C0.091,-0.772 0.087,-0.778 0.082,-0.781C0.076,-0.785 0.071,-0.788 0.064,-0.789C0.058,-0.79 0.053,-0.792 0.047,-0.793C0.042,-0.795 0.038,-0.797 0.034,-0.801C0.031,-0.804 0.029,-0.809 0.029,-0.816C0.029,-0.834 0.034,-0.85 0.043,-0.864C0.053,-0.877 0.067,-0.888 0.085,-0.896C0.104,-0.905 0.127,-0.911 0.154,-0.915C0.181,-0.919 0.212,-0.921 0.247,-0.921C0.28,-0.921 0.307,-0.919 0.327,-0.916C0.347,-0.913 0.362,-0.908 0.373,-0.9C0.383,-0.892 0.39,-0.882 0.394,-0.869C0.397,-0.857 0.399,-0.84 0.399,-0.821L0.399,-0.356C0.407,-0.356 0.413,-0.356 0.417,-0.357C0.422,-0.357 0.425,-0.358 0.428,-0.359C0.431,-0.36 0.434,-0.362 0.437,-0.364C0.439,-0.366 0.443,-0.369 0.447,-0.372L0.569,-0.466Z" style="fill:rgb(255,210,239);fill-rule:nonzero;stroke:rgb(247,92,155);stroke-width:0.26px;"/>
                </g>
                <g transform="matrix(36.9119,2.5513,-2.5513,36.9119,194.028,212.319)">
                    <path d="M0.392,-0.522C0.382,-0.522 0.372,-0.52 0.363,-0.515C0.354,-0.51 0.346,-0.503 0.339,-0.493C0.332,-0.483 0.327,-0.471 0.323,-0.456C0.32,-0.441 0.318,-0.423 0.318,-0.402L0.474,-0.402C0.474,-0.425 0.472,-0.444 0.468,-0.459C0.465,-0.475 0.459,-0.487 0.453,-0.496C0.446,-0.506 0.437,-0.512 0.427,-0.516C0.417,-0.52 0.405,-0.522 0.392,-0.522ZM0.356,-0.647C0.4,-0.647 0.439,-0.64 0.474,-0.627C0.509,-0.614 0.539,-0.597 0.563,-0.574C0.588,-0.551 0.607,-0.524 0.62,-0.493C0.633,-0.463 0.64,-0.43 0.64,-0.394C0.64,-0.379 0.638,-0.368 0.634,-0.36C0.629,-0.352 0.624,-0.346 0.616,-0.342C0.609,-0.338 0.599,-0.335 0.588,-0.334C0.577,-0.333 0.565,-0.333 0.551,-0.333L0.316,-0.333C0.316,-0.297 0.32,-0.268 0.327,-0.246C0.334,-0.224 0.344,-0.206 0.357,-0.194C0.37,-0.181 0.386,-0.173 0.404,-0.169C0.423,-0.164 0.443,-0.162 0.465,-0.162C0.477,-0.162 0.489,-0.163 0.501,-0.166C0.514,-0.168 0.526,-0.171 0.537,-0.174C0.549,-0.178 0.56,-0.182 0.569,-0.186C0.579,-0.189 0.587,-0.193 0.594,-0.197C0.599,-0.2 0.604,-0.201 0.609,-0.201C0.616,-0.201 0.622,-0.198 0.626,-0.192C0.631,-0.185 0.633,-0.178 0.633,-0.17C0.633,-0.168 0.633,-0.165 0.632,-0.163C0.632,-0.161 0.631,-0.159 0.63,-0.156C0.621,-0.132 0.608,-0.11 0.592,-0.089C0.576,-0.069 0.556,-0.051 0.532,-0.036C0.509,-0.021 0.482,-0.009 0.452,-0C0.421,0.008 0.387,0.012 0.349,0.012C0.312,0.012 0.279,0.008 0.249,-0.001C0.219,-0.009 0.191,-0.021 0.167,-0.037C0.143,-0.052 0.122,-0.07 0.104,-0.091C0.085,-0.112 0.07,-0.135 0.058,-0.159C0.046,-0.184 0.037,-0.21 0.031,-0.237C0.025,-0.263 0.022,-0.291 0.022,-0.318C0.022,-0.346 0.025,-0.373 0.031,-0.4C0.037,-0.427 0.047,-0.453 0.059,-0.478C0.071,-0.502 0.087,-0.524 0.105,-0.545C0.124,-0.566 0.146,-0.584 0.17,-0.599C0.195,-0.614 0.223,-0.626 0.254,-0.634C0.285,-0.643 0.319,-0.647 0.356,-0.647Z" style="fill:rgb(255,210,239);fill-rule:nonzero;stroke:rgb(247,92,155);stroke-width:0.26px;"/>
                </g>
                <g transform="matrix(36.8223,3.62215,-3.62215,36.8223,214.581,213.695)">
                    <path d="M0.398,-0.519C0.398,-0.527 0.391,-0.533 0.377,-0.54C0.364,-0.546 0.343,-0.549 0.315,-0.549C0.301,-0.549 0.289,-0.548 0.28,-0.546C0.271,-0.545 0.264,-0.542 0.259,-0.54C0.254,-0.537 0.25,-0.533 0.248,-0.529C0.247,-0.525 0.246,-0.52 0.246,-0.514C0.246,-0.503 0.251,-0.494 0.261,-0.486C0.272,-0.478 0.285,-0.47 0.302,-0.463C0.32,-0.455 0.339,-0.448 0.361,-0.44C0.383,-0.433 0.405,-0.424 0.428,-0.415C0.451,-0.405 0.473,-0.394 0.495,-0.382C0.516,-0.369 0.536,-0.354 0.553,-0.337C0.57,-0.32 0.584,-0.3 0.594,-0.277C0.605,-0.255 0.61,-0.228 0.61,-0.198C0.61,-0.161 0.601,-0.13 0.585,-0.103C0.568,-0.077 0.546,-0.055 0.519,-0.038C0.491,-0.021 0.46,-0.008 0.425,-0C0.39,0.008 0.354,0.012 0.318,0.012C0.281,0.012 0.245,0.008 0.21,0.001C0.174,-0.007 0.143,-0.018 0.115,-0.031C0.088,-0.045 0.065,-0.061 0.048,-0.081C0.031,-0.1 0.023,-0.121 0.023,-0.144C0.023,-0.158 0.025,-0.17 0.029,-0.18C0.034,-0.19 0.039,-0.199 0.046,-0.205C0.053,-0.212 0.061,-0.217 0.07,-0.22C0.079,-0.223 0.089,-0.225 0.099,-0.225C0.114,-0.225 0.127,-0.223 0.137,-0.22C0.147,-0.216 0.156,-0.212 0.162,-0.206C0.168,-0.2 0.173,-0.194 0.177,-0.186C0.181,-0.179 0.185,-0.171 0.188,-0.164C0.192,-0.156 0.196,-0.148 0.2,-0.141C0.204,-0.134 0.21,-0.127 0.217,-0.121C0.224,-0.116 0.234,-0.111 0.245,-0.107C0.256,-0.104 0.27,-0.102 0.288,-0.102C0.315,-0.102 0.336,-0.104 0.349,-0.109C0.362,-0.114 0.369,-0.124 0.369,-0.138C0.369,-0.143 0.364,-0.149 0.354,-0.154C0.345,-0.159 0.332,-0.164 0.316,-0.169C0.301,-0.175 0.283,-0.181 0.263,-0.188C0.243,-0.195 0.222,-0.203 0.201,-0.212C0.18,-0.221 0.16,-0.232 0.14,-0.244C0.119,-0.257 0.102,-0.271 0.086,-0.287C0.07,-0.303 0.058,-0.321 0.048,-0.342C0.038,-0.363 0.034,-0.387 0.034,-0.413C0.034,-0.442 0.037,-0.468 0.044,-0.491C0.052,-0.514 0.062,-0.534 0.074,-0.552C0.087,-0.569 0.103,-0.584 0.121,-0.596C0.139,-0.608 0.158,-0.618 0.179,-0.625C0.2,-0.633 0.223,-0.638 0.247,-0.642C0.27,-0.645 0.295,-0.647 0.32,-0.647C0.363,-0.647 0.4,-0.643 0.431,-0.635C0.462,-0.627 0.488,-0.616 0.508,-0.604C0.528,-0.591 0.542,-0.577 0.552,-0.561C0.561,-0.545 0.566,-0.529 0.566,-0.514C0.566,-0.503 0.564,-0.493 0.559,-0.484C0.555,-0.474 0.549,-0.466 0.54,-0.458C0.532,-0.451 0.521,-0.446 0.509,-0.441C0.497,-0.437 0.483,-0.435 0.468,-0.435C0.45,-0.435 0.436,-0.436 0.425,-0.438C0.413,-0.44 0.404,-0.443 0.398,-0.446C0.391,-0.449 0.386,-0.454 0.384,-0.458C0.381,-0.463 0.38,-0.468 0.38,-0.474C0.38,-0.48 0.381,-0.484 0.383,-0.487C0.385,-0.49 0.387,-0.493 0.389,-0.496C0.391,-0.499 0.393,-0.502 0.395,-0.505C0.397,-0.508 0.398,-0.513 0.398,-0.519Z" style="fill:rgb(255,210,239);fill-rule:nonzero;stroke:rgb(247,92,155);stroke-width:0.26px;"/>
                </g>
            </g>
            <g transform="matrix(1,0,0,1,2.20711,16.9056)">
                <g transform="matrix(34.8005,-12.5668,12.5668,34.8005,42.5585,232.109)">
                    <path d="M0.419,0.012C0.377,0.012 0.338,0.007 0.302,-0.002C0.266,-0.012 0.233,-0.025 0.204,-0.042C0.175,-0.06 0.15,-0.08 0.127,-0.104C0.105,-0.128 0.087,-0.154 0.072,-0.182C0.057,-0.21 0.045,-0.24 0.038,-0.272C0.03,-0.304 0.026,-0.337 0.026,-0.37C0.026,-0.409 0.03,-0.446 0.036,-0.481C0.043,-0.517 0.053,-0.55 0.067,-0.582C0.082,-0.613 0.1,-0.641 0.123,-0.667C0.146,-0.693 0.174,-0.715 0.206,-0.733C0.239,-0.752 0.276,-0.766 0.319,-0.776C0.362,-0.786 0.411,-0.791 0.465,-0.791C0.501,-0.791 0.536,-0.786 0.568,-0.776C0.601,-0.767 0.629,-0.753 0.654,-0.735C0.679,-0.717 0.698,-0.695 0.713,-0.669C0.727,-0.643 0.734,-0.614 0.734,-0.582C0.734,-0.569 0.732,-0.557 0.728,-0.547C0.724,-0.536 0.719,-0.528 0.711,-0.521C0.704,-0.513 0.695,-0.508 0.685,-0.504C0.675,-0.5 0.665,-0.498 0.653,-0.498C0.643,-0.498 0.633,-0.5 0.623,-0.503C0.613,-0.506 0.603,-0.512 0.594,-0.519C0.585,-0.527 0.577,-0.537 0.57,-0.549C0.562,-0.561 0.556,-0.576 0.552,-0.594C0.546,-0.62 0.536,-0.639 0.522,-0.652C0.508,-0.665 0.493,-0.672 0.478,-0.672C0.465,-0.672 0.454,-0.668 0.442,-0.661C0.43,-0.653 0.419,-0.642 0.41,-0.626C0.401,-0.611 0.393,-0.591 0.387,-0.567C0.381,-0.544 0.378,-0.515 0.378,-0.483C0.378,-0.44 0.381,-0.403 0.386,-0.371C0.391,-0.339 0.397,-0.312 0.406,-0.29C0.415,-0.267 0.425,-0.249 0.436,-0.234C0.448,-0.22 0.46,-0.209 0.474,-0.201C0.487,-0.193 0.501,-0.187 0.515,-0.184C0.529,-0.181 0.544,-0.179 0.558,-0.179C0.573,-0.179 0.587,-0.181 0.601,-0.184C0.615,-0.188 0.628,-0.192 0.639,-0.197C0.651,-0.202 0.661,-0.207 0.669,-0.213C0.677,-0.219 0.684,-0.224 0.688,-0.229C0.692,-0.236 0.698,-0.24 0.703,-0.243C0.709,-0.247 0.714,-0.248 0.719,-0.248C0.728,-0.248 0.736,-0.243 0.743,-0.234C0.749,-0.224 0.752,-0.211 0.752,-0.195C0.752,-0.169 0.744,-0.143 0.728,-0.119C0.712,-0.094 0.689,-0.072 0.66,-0.052C0.631,-0.033 0.596,-0.017 0.555,-0.006C0.514,0.006 0.469,0.012 0.419,0.012Z" style="fill:rgb(255,210,239);fill-rule:nonzero;"/>
                </g>
                <g transform="matrix(36.0895,-8.15749,8.15749,36.0895,64.1832,223.862)">
                    <path d="M0.56,-0.445C0.56,-0.458 0.558,-0.469 0.555,-0.476C0.551,-0.484 0.547,-0.489 0.541,-0.493C0.536,-0.497 0.53,-0.499 0.524,-0.501C0.518,-0.502 0.512,-0.504 0.507,-0.505C0.501,-0.507 0.497,-0.509 0.493,-0.512C0.49,-0.516 0.488,-0.521 0.488,-0.528C0.488,-0.565 0.507,-0.592 0.545,-0.608C0.584,-0.625 0.639,-0.633 0.712,-0.633C0.736,-0.633 0.757,-0.631 0.773,-0.626C0.79,-0.621 0.804,-0.615 0.815,-0.607C0.826,-0.599 0.834,-0.589 0.84,-0.578C0.846,-0.566 0.851,-0.554 0.853,-0.54C0.856,-0.526 0.858,-0.511 0.858,-0.496C0.859,-0.48 0.859,-0.464 0.859,-0.447L0.859,-0.185C0.859,-0.172 0.861,-0.162 0.864,-0.155C0.867,-0.148 0.872,-0.142 0.877,-0.138C0.883,-0.135 0.888,-0.132 0.894,-0.131C0.9,-0.13 0.906,-0.128 0.911,-0.126C0.917,-0.125 0.921,-0.122 0.925,-0.119C0.928,-0.116 0.93,-0.111 0.93,-0.104C0.93,-0.067 0.911,-0.04 0.873,-0.024C0.836,-0.007 0.782,0.001 0.712,0.001C0.695,0.001 0.679,-0 0.666,-0.003C0.653,-0.006 0.641,-0.009 0.631,-0.013C0.621,-0.017 0.613,-0.022 0.605,-0.028C0.598,-0.033 0.592,-0.039 0.587,-0.044C0.576,-0.057 0.569,-0.073 0.566,-0.09C0.549,-0.071 0.529,-0.054 0.506,-0.039C0.496,-0.032 0.485,-0.026 0.473,-0.02C0.46,-0.014 0.447,-0.008 0.432,-0.004C0.417,0.001 0.402,0.005 0.385,0.008C0.367,0.011 0.349,0.012 0.33,0.012C0.294,0.012 0.263,0.008 0.237,-0.001C0.211,-0.01 0.189,-0.022 0.171,-0.037C0.153,-0.052 0.139,-0.069 0.127,-0.089C0.116,-0.109 0.108,-0.13 0.102,-0.152C0.095,-0.174 0.091,-0.196 0.089,-0.218C0.087,-0.24 0.086,-0.262 0.086,-0.282L0.086,-0.442C0.086,-0.456 0.084,-0.467 0.081,-0.474C0.077,-0.482 0.072,-0.488 0.067,-0.492C0.061,-0.496 0.056,-0.499 0.049,-0.5C0.043,-0.502 0.037,-0.503 0.032,-0.505C0.026,-0.507 0.022,-0.509 0.018,-0.512C0.014,-0.516 0.013,-0.521 0.013,-0.528C0.013,-0.565 0.032,-0.592 0.07,-0.608C0.109,-0.625 0.164,-0.633 0.237,-0.633C0.269,-0.633 0.295,-0.629 0.314,-0.621C0.333,-0.613 0.348,-0.603 0.358,-0.589C0.368,-0.576 0.375,-0.56 0.377,-0.541C0.38,-0.522 0.382,-0.502 0.382,-0.481L0.382,-0.24C0.382,-0.22 0.383,-0.202 0.386,-0.186C0.39,-0.17 0.395,-0.157 0.402,-0.146C0.409,-0.134 0.419,-0.126 0.431,-0.12C0.443,-0.115 0.458,-0.112 0.476,-0.112C0.487,-0.112 0.498,-0.114 0.508,-0.117C0.518,-0.121 0.527,-0.126 0.535,-0.132C0.542,-0.139 0.548,-0.147 0.552,-0.156C0.557,-0.164 0.559,-0.174 0.559,-0.185L0.56,-0.445Z" style="fill:rgb(255,210,239);fill-rule:nonzero;"/>
                </g>
                <g transform="matrix(36.6819,-4.84168,4.84168,36.6819,93.1434,217.226)">
                    <path d="M0.813,-0.313C0.813,-0.288 0.811,-0.263 0.808,-0.237C0.805,-0.211 0.799,-0.186 0.792,-0.162C0.785,-0.138 0.775,-0.115 0.762,-0.094C0.75,-0.073 0.734,-0.055 0.716,-0.039C0.698,-0.023 0.676,-0.011 0.651,-0.001C0.625,0.008 0.596,0.012 0.563,0.012C0.526,0.012 0.494,0.008 0.468,0C0.441,-0.007 0.418,-0.017 0.399,-0.028L0.399,0.086C0.399,0.1 0.401,0.11 0.404,0.117C0.408,0.125 0.412,0.13 0.417,0.134C0.423,0.138 0.428,0.14 0.435,0.142C0.441,0.143 0.447,0.145 0.452,0.146C0.457,0.148 0.462,0.15 0.465,0.154C0.469,0.157 0.471,0.162 0.471,0.169C0.471,0.206 0.451,0.233 0.413,0.249C0.375,0.266 0.319,0.274 0.247,0.274C0.212,0.274 0.181,0.272 0.154,0.268C0.127,0.264 0.104,0.258 0.085,0.249C0.067,0.241 0.053,0.23 0.043,0.217C0.034,0.203 0.029,0.188 0.029,0.169C0.029,0.162 0.031,0.157 0.034,0.154C0.037,0.15 0.042,0.148 0.047,0.146C0.052,0.145 0.058,0.143 0.064,0.142C0.07,0.141 0.076,0.138 0.081,0.135C0.087,0.131 0.091,0.125 0.094,0.118C0.098,0.111 0.1,0.101 0.1,0.088L0.1,-0.447C0.1,-0.46 0.098,-0.47 0.094,-0.477C0.091,-0.484 0.087,-0.49 0.081,-0.493C0.076,-0.497 0.07,-0.5 0.064,-0.501C0.058,-0.502 0.052,-0.504 0.047,-0.505C0.042,-0.507 0.037,-0.509 0.034,-0.512C0.031,-0.516 0.029,-0.521 0.029,-0.528C0.029,-0.546 0.034,-0.562 0.043,-0.575C0.053,-0.589 0.067,-0.6 0.085,-0.608C0.104,-0.617 0.127,-0.623 0.154,-0.627C0.181,-0.631 0.212,-0.633 0.247,-0.633C0.285,-0.633 0.314,-0.63 0.335,-0.625C0.355,-0.619 0.37,-0.609 0.38,-0.595C0.389,-0.602 0.399,-0.609 0.411,-0.615C0.423,-0.621 0.436,-0.626 0.451,-0.631C0.466,-0.636 0.482,-0.64 0.5,-0.643C0.518,-0.646 0.538,-0.647 0.561,-0.647C0.593,-0.647 0.623,-0.642 0.648,-0.633C0.673,-0.623 0.695,-0.611 0.714,-0.594C0.733,-0.578 0.748,-0.559 0.761,-0.538C0.774,-0.516 0.784,-0.493 0.791,-0.468C0.799,-0.443 0.804,-0.417 0.808,-0.391C0.811,-0.365 0.813,-0.339 0.813,-0.313ZM0.399,-0.125C0.406,-0.122 0.413,-0.12 0.42,-0.119C0.427,-0.118 0.434,-0.117 0.442,-0.117C0.46,-0.117 0.474,-0.12 0.484,-0.126C0.494,-0.131 0.501,-0.142 0.505,-0.156C0.51,-0.171 0.513,-0.191 0.513,-0.216C0.514,-0.241 0.515,-0.273 0.515,-0.311C0.515,-0.351 0.513,-0.385 0.51,-0.412C0.507,-0.44 0.503,-0.461 0.496,-0.477C0.49,-0.493 0.481,-0.505 0.471,-0.512C0.46,-0.519 0.448,-0.522 0.433,-0.522C0.427,-0.522 0.421,-0.521 0.415,-0.521C0.409,-0.52 0.404,-0.518 0.399,-0.516C0.4,-0.506 0.4,-0.495 0.4,-0.484L0.4,-0.447L0.399,-0.125Z" style="fill:rgb(255,210,239);fill-rule:nonzero;"/>
                </g>
                <g transform="matrix(36.91,-2.57974,2.57974,36.91,120.218,213.665)">
                    <path d="M0.356,-0.647C0.404,-0.647 0.446,-0.642 0.48,-0.631C0.515,-0.62 0.543,-0.606 0.565,-0.587C0.587,-0.569 0.603,-0.548 0.613,-0.523C0.623,-0.499 0.628,-0.473 0.628,-0.446C0.628,-0.434 0.626,-0.424 0.623,-0.416C0.619,-0.407 0.614,-0.399 0.608,-0.393C0.602,-0.387 0.595,-0.382 0.586,-0.379C0.578,-0.376 0.569,-0.374 0.559,-0.374C0.551,-0.374 0.542,-0.375 0.533,-0.378C0.524,-0.381 0.516,-0.386 0.508,-0.393C0.5,-0.399 0.493,-0.408 0.487,-0.418C0.481,-0.428 0.476,-0.441 0.473,-0.456C0.471,-0.467 0.467,-0.476 0.461,-0.484C0.456,-0.493 0.45,-0.499 0.444,-0.505C0.437,-0.511 0.43,-0.515 0.422,-0.518C0.414,-0.521 0.406,-0.522 0.398,-0.522C0.384,-0.522 0.372,-0.519 0.362,-0.513C0.351,-0.507 0.343,-0.499 0.336,-0.488C0.329,-0.476 0.324,-0.463 0.321,-0.447C0.318,-0.43 0.316,-0.412 0.316,-0.392C0.316,-0.314 0.328,-0.256 0.351,-0.219C0.375,-0.181 0.413,-0.162 0.465,-0.162C0.48,-0.162 0.495,-0.164 0.511,-0.168C0.526,-0.172 0.541,-0.177 0.554,-0.182C0.568,-0.187 0.579,-0.191 0.589,-0.195C0.599,-0.199 0.605,-0.201 0.609,-0.201C0.616,-0.201 0.622,-0.198 0.626,-0.192C0.631,-0.185 0.633,-0.178 0.633,-0.17C0.633,-0.167 0.633,-0.165 0.633,-0.163C0.632,-0.16 0.632,-0.158 0.631,-0.156C0.621,-0.132 0.608,-0.109 0.591,-0.089C0.574,-0.069 0.553,-0.051 0.529,-0.036C0.505,-0.021 0.478,-0.009 0.448,-0C0.417,0.008 0.385,0.012 0.349,0.012C0.313,0.012 0.279,0.008 0.249,-0.001C0.219,-0.009 0.191,-0.021 0.167,-0.037C0.143,-0.052 0.122,-0.07 0.104,-0.091C0.086,-0.112 0.071,-0.135 0.058,-0.159C0.046,-0.184 0.037,-0.21 0.031,-0.237C0.025,-0.263 0.022,-0.291 0.022,-0.318C0.022,-0.346 0.025,-0.373 0.031,-0.4C0.037,-0.427 0.047,-0.453 0.059,-0.478C0.071,-0.502 0.087,-0.524 0.105,-0.545C0.124,-0.566 0.146,-0.584 0.17,-0.599C0.195,-0.614 0.223,-0.626 0.254,-0.634C0.285,-0.643 0.319,-0.647 0.356,-0.647Z" style="fill:rgb(255,210,239);fill-rule:nonzero;"/>
                </g>
                <g transform="matrix(36.992,-0.768559,0.768559,36.992,140.461,212.112)">
                    <path d="M0.35,-0.1C0.361,-0.1 0.37,-0.102 0.376,-0.105C0.383,-0.109 0.388,-0.114 0.392,-0.12C0.395,-0.126 0.398,-0.134 0.399,-0.143C0.4,-0.153 0.4,-0.163 0.4,-0.175C0.4,-0.185 0.4,-0.198 0.4,-0.213C0.4,-0.229 0.399,-0.244 0.399,-0.259C0.398,-0.277 0.398,-0.295 0.397,-0.314C0.393,-0.315 0.389,-0.315 0.385,-0.316C0.38,-0.316 0.376,-0.316 0.373,-0.316C0.356,-0.316 0.342,-0.313 0.331,-0.306C0.32,-0.3 0.311,-0.29 0.304,-0.279C0.297,-0.267 0.292,-0.253 0.289,-0.237C0.287,-0.22 0.285,-0.203 0.285,-0.184C0.285,-0.173 0.286,-0.162 0.287,-0.152C0.288,-0.141 0.291,-0.132 0.296,-0.125C0.3,-0.117 0.307,-0.111 0.316,-0.107C0.324,-0.102 0.336,-0.1 0.35,-0.1ZM0.585,-0C0.569,-0 0.552,-0.001 0.536,-0.003C0.519,-0.004 0.504,-0.008 0.489,-0.014C0.474,-0.019 0.461,-0.027 0.448,-0.038C0.436,-0.048 0.425,-0.062 0.417,-0.079C0.41,-0.064 0.399,-0.05 0.385,-0.039C0.371,-0.028 0.354,-0.018 0.336,-0.01C0.317,-0.003 0.298,0.003 0.278,0.007C0.257,0.01 0.238,0.012 0.219,0.012C0.186,0.012 0.158,0.008 0.133,0C0.108,-0.007 0.087,-0.018 0.07,-0.033C0.053,-0.047 0.041,-0.065 0.032,-0.085C0.024,-0.105 0.02,-0.128 0.02,-0.153C0.02,-0.182 0.024,-0.211 0.034,-0.237C0.044,-0.264 0.061,-0.287 0.085,-0.307C0.109,-0.326 0.141,-0.342 0.181,-0.354C0.221,-0.365 0.271,-0.371 0.332,-0.371L0.398,-0.371C0.398,-0.407 0.397,-0.437 0.395,-0.461C0.392,-0.485 0.389,-0.504 0.383,-0.518C0.378,-0.532 0.372,-0.541 0.364,-0.547C0.356,-0.552 0.347,-0.555 0.335,-0.555C0.323,-0.555 0.313,-0.551 0.304,-0.544C0.296,-0.536 0.289,-0.526 0.284,-0.511C0.279,-0.497 0.276,-0.48 0.274,-0.46C0.272,-0.44 0.271,-0.417 0.271,-0.392C0.257,-0.392 0.242,-0.392 0.226,-0.393C0.211,-0.393 0.196,-0.395 0.18,-0.396C0.165,-0.398 0.151,-0.401 0.137,-0.406C0.124,-0.41 0.112,-0.415 0.102,-0.422C0.091,-0.429 0.083,-0.438 0.077,-0.449C0.07,-0.459 0.067,-0.472 0.067,-0.488C0.067,-0.509 0.073,-0.53 0.084,-0.549C0.095,-0.568 0.113,-0.585 0.136,-0.599C0.159,-0.614 0.189,-0.625 0.225,-0.634C0.26,-0.643 0.303,-0.647 0.353,-0.647C0.41,-0.647 0.46,-0.641 0.501,-0.629C0.543,-0.618 0.577,-0.6 0.604,-0.577C0.631,-0.553 0.651,-0.524 0.664,-0.488C0.677,-0.452 0.683,-0.411 0.683,-0.363L0.683,-0.19C0.683,-0.176 0.685,-0.165 0.689,-0.157C0.692,-0.149 0.697,-0.143 0.702,-0.139C0.708,-0.135 0.714,-0.132 0.72,-0.131C0.727,-0.129 0.733,-0.128 0.738,-0.126C0.743,-0.124 0.748,-0.122 0.752,-0.118C0.755,-0.115 0.757,-0.11 0.757,-0.103C0.757,-0.07 0.743,-0.045 0.714,-0.027C0.684,-0.009 0.642,-0 0.585,-0Z" style="fill:rgb(255,210,239);fill-rule:nonzero;"/>
                </g>
                <g transform="matrix(36.9832,1.11548,-1.11548,36.9832,164.843,211.437)">
                    <path d="M0.569,-0.466C0.576,-0.471 0.581,-0.476 0.583,-0.481C0.586,-0.486 0.587,-0.49 0.587,-0.493C0.587,-0.498 0.584,-0.502 0.579,-0.506C0.573,-0.511 0.567,-0.515 0.56,-0.52C0.553,-0.524 0.547,-0.529 0.542,-0.534C0.536,-0.539 0.533,-0.545 0.533,-0.551C0.533,-0.568 0.538,-0.582 0.549,-0.593C0.559,-0.604 0.572,-0.612 0.588,-0.618C0.604,-0.624 0.622,-0.628 0.641,-0.63C0.661,-0.632 0.68,-0.633 0.698,-0.633C0.725,-0.633 0.749,-0.631 0.768,-0.628C0.788,-0.625 0.803,-0.621 0.816,-0.614C0.828,-0.607 0.837,-0.599 0.842,-0.588C0.847,-0.578 0.85,-0.565 0.85,-0.551C0.85,-0.541 0.848,-0.534 0.844,-0.529C0.84,-0.524 0.835,-0.519 0.828,-0.516C0.821,-0.513 0.813,-0.51 0.804,-0.508C0.795,-0.506 0.786,-0.503 0.775,-0.5C0.765,-0.496 0.754,-0.492 0.743,-0.487C0.733,-0.482 0.722,-0.475 0.711,-0.466L0.638,-0.404L0.791,-0.179C0.799,-0.168 0.807,-0.159 0.816,-0.154C0.825,-0.149 0.833,-0.145 0.842,-0.142C0.851,-0.14 0.86,-0.138 0.868,-0.137C0.876,-0.137 0.883,-0.135 0.889,-0.134C0.896,-0.132 0.901,-0.129 0.905,-0.126C0.908,-0.122 0.91,-0.116 0.91,-0.107C0.91,-0.088 0.906,-0.071 0.898,-0.058C0.89,-0.044 0.878,-0.033 0.862,-0.024C0.846,-0.016 0.826,-0.01 0.802,-0.006C0.778,-0.002 0.751,-0 0.72,-0C0.684,-0 0.656,-0.002 0.634,-0.006C0.613,-0.009 0.596,-0.015 0.584,-0.021C0.572,-0.028 0.563,-0.036 0.558,-0.045C0.553,-0.054 0.549,-0.064 0.546,-0.075C0.543,-0.087 0.54,-0.099 0.537,-0.111C0.533,-0.124 0.528,-0.137 0.519,-0.15L0.447,-0.263C0.446,-0.264 0.445,-0.266 0.443,-0.268C0.442,-0.269 0.439,-0.271 0.436,-0.272C0.432,-0.274 0.428,-0.275 0.422,-0.276C0.416,-0.276 0.408,-0.277 0.399,-0.277L0.399,-0.188C0.399,-0.175 0.401,-0.164 0.404,-0.157C0.408,-0.149 0.412,-0.144 0.418,-0.14C0.423,-0.136 0.429,-0.134 0.435,-0.132C0.441,-0.131 0.447,-0.129 0.452,-0.127C0.458,-0.126 0.462,-0.123 0.466,-0.12C0.469,-0.117 0.471,-0.112 0.471,-0.105C0.471,-0.068 0.452,-0.041 0.414,-0.025C0.375,-0.008 0.32,-0 0.247,-0C0.212,-0 0.181,-0.002 0.154,-0.006C0.127,-0.01 0.104,-0.016 0.085,-0.025C0.067,-0.033 0.053,-0.044 0.043,-0.057C0.034,-0.071 0.029,-0.086 0.029,-0.105C0.029,-0.112 0.031,-0.117 0.034,-0.12C0.038,-0.123 0.042,-0.126 0.047,-0.127C0.053,-0.129 0.058,-0.131 0.064,-0.132C0.071,-0.133 0.076,-0.136 0.082,-0.139C0.087,-0.143 0.091,-0.149 0.095,-0.156C0.098,-0.163 0.1,-0.173 0.1,-0.186L0.1,-0.735C0.1,-0.748 0.098,-0.758 0.095,-0.765C0.091,-0.772 0.087,-0.778 0.082,-0.781C0.076,-0.785 0.071,-0.788 0.064,-0.789C0.058,-0.79 0.053,-0.792 0.047,-0.793C0.042,-0.795 0.038,-0.797 0.034,-0.801C0.031,-0.804 0.029,-0.809 0.029,-0.816C0.029,-0.834 0.034,-0.85 0.043,-0.864C0.053,-0.877 0.067,-0.888 0.085,-0.896C0.104,-0.905 0.127,-0.911 0.154,-0.915C0.181,-0.919 0.212,-0.921 0.247,-0.921C0.28,-0.921 0.307,-0.919 0.327,-0.916C0.347,-0.913 0.362,-0.908 0.373,-0.9C0.383,-0.892 0.39,-0.882 0.394,-0.869C0.397,-0.857 0.399,-0.84 0.399,-0.821L0.399,-0.356C0.407,-0.356 0.413,-0.356 0.417,-0.357C0.422,-0.357 0.425,-0.358 0.428,-0.359C0.431,-0.36 0.434,-0.362 0.437,-0.364C0.439,-0.366 0.443,-0.369 0.447,-0.372L0.569,-0.466Z" style="fill:rgb(255,210,239);fill-rule:nonzero;"/>
                </g>
                <g transform="matrix(36.9119,2.5513,-2.5513,36.9119,194.028,212.319)">
                    <path d="M0.392,-0.522C0.382,-0.522 0.372,-0.52 0.363,-0.515C0.354,-0.51 0.346,-0.503 0.339,-0.493C0.332,-0.483 0.327,-0.471 0.323,-0.456C0.32,-0.441 0.318,-0.423 0.318,-0.402L0.474,-0.402C0.474,-0.425 0.472,-0.444 0.468,-0.459C0.465,-0.475 0.459,-0.487 0.453,-0.496C0.446,-0.506 0.437,-0.512 0.427,-0.516C0.417,-0.52 0.405,-0.522 0.392,-0.522ZM0.356,-0.647C0.4,-0.647 0.439,-0.64 0.474,-0.627C0.509,-0.614 0.539,-0.597 0.563,-0.574C0.588,-0.551 0.607,-0.524 0.62,-0.493C0.633,-0.463 0.64,-0.43 0.64,-0.394C0.64,-0.379 0.638,-0.368 0.634,-0.36C0.629,-0.352 0.624,-0.346 0.616,-0.342C0.609,-0.338 0.599,-0.335 0.588,-0.334C0.577,-0.333 0.565,-0.333 0.551,-0.333L0.316,-0.333C0.316,-0.297 0.32,-0.268 0.327,-0.246C0.334,-0.224 0.344,-0.206 0.357,-0.194C0.37,-0.181 0.386,-0.173 0.404,-0.169C0.423,-0.164 0.443,-0.162 0.465,-0.162C0.477,-0.162 0.489,-0.163 0.501,-0.166C0.514,-0.168 0.526,-0.171 0.537,-0.174C0.549,-0.178 0.56,-0.182 0.569,-0.186C0.579,-0.189 0.587,-0.193 0.594,-0.197C0.599,-0.2 0.604,-0.201 0.609,-0.201C0.616,-0.201 0.622,-0.198 0.626,-0.192C0.631,-0.185 0.633,-0.178 0.633,-0.17C0.633,-0.168 0.633,-0.165 0.632,-0.163C0.632,-0.161 0.631,-0.159 0.63,-0.156C0.621,-0.132 0.608,-0.11 0.592,-0.089C0.576,-0.069 0.556,-0.051 0.532,-0.036C0.509,-0.021 0.482,-0.009 0.452,-0C0.421,0.008 0.387,0.012 0.349,0.012C0.312,0.012 0.279,0.008 0.249,-0.001C0.219,-0.009 0.191,-0.021 0.167,-0.037C0.143,-0.052 0.122,-0.07 0.104,-0.091C0.085,-0.112 0.07,-0.135 0.058,-0.159C0.046,-0.184 0.037,-0.21 0.031,-0.237C0.025,-0.263 0.022,-0.291 0.022,-0.318C0.022,-0.346 0.025,-0.373 0.031,-0.4C0.037,-0.427 0.047,-0.453 0.059,-0.478C0.071,-0.502 0.087,-0.524 0.105,-0.545C0.124,-0.566 0.146,-0.584 0.17,-0.599C0.195,-0.614 0.223,-0.626 0.254,-0.634C0.285,-0.643 0.319,-0.647 0.356,-0.647Z" style="fill:rgb(255,210,239);fill-rule:nonzero;"/>
                </g>
                <g transform="matrix(36.8223,3.62215,-3.62215,36.8223,214.581,213.695)">
                    <path d="M0.398,-0.519C0.398,-0.527 0.391,-0.533 0.377,-0.54C0.364,-0.546 0.343,-0.549 0.315,-0.549C0.301,-0.549 0.289,-0.548 0.28,-0.546C0.271,-0.545 0.264,-0.542 0.259,-0.54C0.254,-0.537 0.25,-0.533 0.248,-0.529C0.247,-0.525 0.246,-0.52 0.246,-0.514C0.246,-0.503 0.251,-0.494 0.261,-0.486C0.272,-0.478 0.285,-0.47 0.302,-0.463C0.32,-0.455 0.339,-0.448 0.361,-0.44C0.383,-0.433 0.405,-0.424 0.428,-0.415C0.451,-0.405 0.473,-0.394 0.495,-0.382C0.516,-0.369 0.536,-0.354 0.553,-0.337C0.57,-0.32 0.584,-0.3 0.594,-0.277C0.605,-0.255 0.61,-0.228 0.61,-0.198C0.61,-0.161 0.601,-0.13 0.585,-0.103C0.568,-0.077 0.546,-0.055 0.519,-0.038C0.491,-0.021 0.46,-0.008 0.425,-0C0.39,0.008 0.354,0.012 0.318,0.012C0.281,0.012 0.245,0.008 0.21,0.001C0.174,-0.007 0.143,-0.018 0.115,-0.031C0.088,-0.045 0.065,-0.061 0.048,-0.081C0.031,-0.1 0.023,-0.121 0.023,-0.144C0.023,-0.158 0.025,-0.17 0.029,-0.18C0.034,-0.19 0.039,-0.199 0.046,-0.205C0.053,-0.212 0.061,-0.217 0.07,-0.22C0.079,-0.223 0.089,-0.225 0.099,-0.225C0.114,-0.225 0.127,-0.223 0.137,-0.22C0.147,-0.216 0.156,-0.212 0.162,-0.206C0.168,-0.2 0.173,-0.194 0.177,-0.186C0.181,-0.179 0.185,-0.171 0.188,-0.164C0.192,-0.156 0.196,-0.148 0.2,-0.141C0.204,-0.134 0.21,-0.127 0.217,-0.121C0.224,-0.116 0.234,-0.111 0.245,-0.107C0.256,-0.104 0.27,-0.102 0.288,-0.102C0.315,-0.102 0.336,-0.104 0.349,-0.109C0.362,-0.114 0.369,-0.124 0.369,-0.138C0.369,-0.143 0.364,-0.149 0.354,-0.154C0.345,-0.159 0.332,-0.164 0.316,-0.169C0.301,-0.175 0.283,-0.181 0.263,-0.188C0.243,-0.195 0.222,-0.203 0.201,-0.212C0.18,-0.221 0.16,-0.232 0.14,-0.244C0.119,-0.257 0.102,-0.271 0.086,-0.287C0.07,-0.303 0.058,-0.321 0.048,-0.342C0.038,-0.363 0.034,-0.387 0.034,-0.413C0.034,-0.442 0.037,-0.468 0.044,-0.491C0.052,-0.514 0.062,-0.534 0.074,-0.552C0.087,-0.569 0.103,-0.584 0.121,-0.596C0.139,-0.608 0.158,-0.618 0.179,-0.625C0.2,-0.633 0.223,-0.638 0.247,-0.642C0.27,-0.645 0.295,-0.647 0.32,-0.647C0.363,-0.647 0.4,-0.643 0.431,-0.635C0.462,-0.627 0.488,-0.616 0.508,-0.604C0.528,-0.591 0.542,-0.577 0.552,-0.561C0.561,-0.545 0.566,-0.529 0.566,-0.514C0.566,-0.503 0.564,-0.493 0.559,-0.484C0.555,-0.474 0.549,-0.466 0.54,-0.458C0.532,-0.451 0.521,-0.446 0.509,-0.441C0.497,-0.437 0.483,-0.435 0.468,-0.435C0.45,-0.435 0.436,-0.436 0.425,-0.438C0.413,-0.44 0.404,-0.443 0.398,-0.446C0.391,-0.449 0.386,-0.454 0.384,-0.458C0.381,-0.463 0.38,-0.468 0.38,-0.474C0.38,-0.48 0.381,-0.484 0.383,-0.487C0.385,-0.49 0.387,-0.493 0.389,-0.496C0.391,-0.499 0.393,-0.502 0.395,-0.505C0.397,-0.508 0.398,-0.513 0.398,-0.519Z" style="fill:rgb(255,210,239);fill-rule:nonzero;"/>
                </g>
            </g>
        </g>
        <g transform="matrix(1,0,0,1,-5.28127,-0.059516)">
            <g transform="matrix(28.5612,-9.17911,9.17911,28.5612,84.4155,170.112)">
                <path d="M0.542,0.087C0.526,0.087 0.508,0.079 0.488,0.063C0.467,0.046 0.446,0.025 0.423,-0.002C0.4,-0.029 0.377,-0.058 0.355,-0.09C0.333,-0.122 0.312,-0.154 0.293,-0.187C0.273,-0.219 0.256,-0.248 0.242,-0.275L0.151,0.019C0.146,0.035 0.138,0.047 0.126,0.054C0.113,0.061 0.1,0.065 0.085,0.067C0.07,0.068 0.056,0.069 0.043,0.069C0.052,0.048 0.062,0.026 0.071,0.003C0.08,-0.021 0.091,-0.05 0.102,-0.083C0.113,-0.116 0.127,-0.157 0.144,-0.204C0.16,-0.251 0.18,-0.309 0.203,-0.376C0.226,-0.443 0.255,-0.523 0.288,-0.616C0.289,-0.621 0.292,-0.627 0.295,-0.636C0.298,-0.644 0.3,-0.652 0.3,-0.659C0.3,-0.665 0.299,-0.67 0.296,-0.673C0.293,-0.676 0.287,-0.678 0.28,-0.678C0.264,-0.678 0.249,-0.672 0.235,-0.66C0.221,-0.647 0.208,-0.632 0.197,-0.614C0.186,-0.595 0.177,-0.576 0.171,-0.557C0.164,-0.538 0.161,-0.521 0.161,-0.506C0.161,-0.491 0.164,-0.475 0.171,-0.46C0.142,-0.46 0.122,-0.466 0.11,-0.479C0.097,-0.491 0.091,-0.506 0.091,-0.525C0.091,-0.548 0.098,-0.571 0.112,-0.594C0.126,-0.616 0.144,-0.638 0.166,-0.657C0.187,-0.676 0.21,-0.691 0.235,-0.703C0.259,-0.714 0.281,-0.72 0.302,-0.72C0.325,-0.72 0.339,-0.714 0.347,-0.702C0.354,-0.689 0.357,-0.676 0.357,-0.662C0.357,-0.655 0.356,-0.648 0.355,-0.641C0.354,-0.634 0.352,-0.628 0.35,-0.622L0.276,-0.382C0.283,-0.387 0.292,-0.393 0.302,-0.4C0.311,-0.407 0.326,-0.418 0.345,-0.433C0.382,-0.462 0.418,-0.493 0.453,-0.525C0.488,-0.557 0.52,-0.59 0.549,-0.624C0.578,-0.657 0.604,-0.69 0.625,-0.723C0.633,-0.716 0.638,-0.707 0.641,-0.696C0.644,-0.685 0.645,-0.676 0.645,-0.669C0.645,-0.648 0.636,-0.626 0.62,-0.602C0.603,-0.577 0.58,-0.552 0.553,-0.526C0.525,-0.5 0.495,-0.474 0.462,-0.449C0.429,-0.424 0.397,-0.4 0.364,-0.378C0.331,-0.356 0.302,-0.337 0.276,-0.32C0.297,-0.287 0.318,-0.256 0.338,-0.227C0.357,-0.198 0.379,-0.169 0.403,-0.141C0.427,-0.112 0.455,-0.083 0.488,-0.053C0.52,-0.022 0.559,0.01 0.604,0.045C0.598,0.056 0.589,0.066 0.577,0.075C0.565,0.083 0.553,0.087 0.542,0.087Z" style="fill:rgb(229,80,69);fill-rule:nonzero;stroke:rgb(229,80,69);stroke-width:0.07px;"/>
            </g>
            <g transform="matrix(29.4213,-5.86398,5.86398,29.4213,101.262,164.741)">
                <path d="M0.056,0.047C0.034,0.047 0.015,0.04 -0.002,0.025C-0.018,0.01 -0.026,-0.012 -0.026,-0.041C-0.026,-0.064 -0.021,-0.09 -0.01,-0.117C0.001,-0.144 0.015,-0.171 0.034,-0.198C0.053,-0.225 0.074,-0.249 0.098,-0.271C0.122,-0.292 0.148,-0.31 0.175,-0.323C0.202,-0.336 0.23,-0.343 0.257,-0.343C0.286,-0.343 0.31,-0.336 0.33,-0.321C0.35,-0.306 0.36,-0.287 0.36,-0.263C0.36,-0.245 0.354,-0.232 0.341,-0.224C0.328,-0.216 0.313,-0.214 0.296,-0.217C0.297,-0.223 0.299,-0.229 0.3,-0.235C0.301,-0.241 0.301,-0.247 0.301,-0.254C0.301,-0.267 0.298,-0.279 0.293,-0.29C0.288,-0.301 0.276,-0.306 0.259,-0.306C0.24,-0.306 0.221,-0.3 0.202,-0.287C0.183,-0.274 0.164,-0.258 0.147,-0.238C0.129,-0.217 0.113,-0.195 0.099,-0.171C0.085,-0.146 0.074,-0.122 0.066,-0.099C0.058,-0.076 0.054,-0.055 0.054,-0.036C0.054,-0.015 0.062,-0.004 0.077,-0.004C0.092,-0.004 0.109,-0.012 0.128,-0.027C0.147,-0.042 0.166,-0.06 0.185,-0.083C0.204,-0.106 0.222,-0.129 0.239,-0.153C0.256,-0.176 0.271,-0.196 0.284,-0.213C0.286,-0.216 0.289,-0.218 0.292,-0.218C0.295,-0.217 0.3,-0.216 0.308,-0.214C0.315,-0.211 0.322,-0.208 0.329,-0.203C0.336,-0.198 0.339,-0.192 0.339,-0.185C0.339,-0.178 0.336,-0.17 0.331,-0.16C0.325,-0.149 0.318,-0.138 0.311,-0.126C0.303,-0.113 0.296,-0.101 0.291,-0.089C0.285,-0.076 0.282,-0.064 0.282,-0.053C0.282,-0.044 0.284,-0.036 0.289,-0.029C0.294,-0.021 0.301,-0.017 0.312,-0.017C0.328,-0.017 0.351,-0.029 0.38,-0.053C0.409,-0.076 0.438,-0.116 0.468,-0.173L0.487,-0.154C0.471,-0.118 0.452,-0.086 0.43,-0.059C0.407,-0.031 0.384,-0.009 0.359,0.007C0.334,0.022 0.309,0.03 0.284,0.03C0.257,0.03 0.236,0.021 0.223,0.004C0.21,-0.013 0.202,-0.032 0.201,-0.052L0.201,-0.057C0.174,-0.025 0.15,0 0.128,0.019C0.105,0.038 0.081,0.047 0.056,0.047Z" style="fill:rgb(229,80,69);fill-rule:nonzero;stroke:rgb(229,80,69);stroke-width:0.07px;"/>
            </g>
            <g transform="matrix(29.8026,-3.43544,3.43544,29.8026,114.13,162.236)">
                <path d="M0.091,0.046C0.062,0.046 0.038,0.037 0.02,0.02C0.002,0.003 -0.007,-0.024 -0.007,-0.059C-0.007,-0.086 -0.002,-0.12 0.009,-0.161C0.019,-0.202 0.032,-0.244 0.048,-0.287C0.043,-0.288 0.038,-0.29 0.032,-0.291C0.025,-0.292 0.019,-0.293 0.013,-0.296L0.013,-0.327C0.024,-0.326 0.033,-0.325 0.04,-0.324C0.047,-0.323 0.054,-0.323 0.061,-0.322C0.075,-0.357 0.09,-0.392 0.107,-0.425C0.123,-0.458 0.139,-0.487 0.156,-0.513C0.172,-0.539 0.187,-0.56 0.202,-0.575C0.217,-0.59 0.23,-0.597 0.241,-0.597C0.248,-0.597 0.254,-0.595 0.26,-0.59C0.266,-0.584 0.269,-0.577 0.269,-0.568C0.269,-0.555 0.262,-0.536 0.249,-0.511C0.235,-0.486 0.218,-0.458 0.198,-0.425C0.178,-0.392 0.159,-0.356 0.14,-0.319L0.171,-0.319C0.2,-0.319 0.227,-0.32 0.251,-0.321C0.274,-0.322 0.298,-0.323 0.323,-0.326L0.323,-0.293C0.286,-0.29 0.253,-0.287 0.222,-0.285C0.191,-0.283 0.162,-0.282 0.134,-0.281L0.122,-0.281C0.108,-0.248 0.096,-0.215 0.086,-0.181C0.075,-0.146 0.07,-0.113 0.07,-0.08C0.07,-0.053 0.074,-0.033 0.083,-0.022C0.092,-0.011 0.105,-0.005 0.124,-0.005C0.157,-0.005 0.192,-0.02 0.227,-0.051C0.262,-0.081 0.292,-0.122 0.318,-0.174L0.332,-0.164C0.315,-0.125 0.293,-0.089 0.268,-0.057C0.242,-0.025 0.214,0 0.184,0.019C0.154,0.037 0.123,0.046 0.091,0.046Z" style="fill:rgb(229,80,69);fill-rule:nonzero;stroke:rgb(229,80,69);stroke-width:0.07px;"/>
            </g>
            <g transform="matrix(29.9479,-1.76669,1.76669,29.9479,122.619,161.244)">
                <path d="M0.08,0.03C0.051,0.03 0.029,0.021 0.014,0.004C-0.001,-0.013 -0.008,-0.034 -0.008,-0.059C-0.008,-0.074 -0.005,-0.094 0,-0.117C0.005,-0.14 0.013,-0.165 0.023,-0.191C0.032,-0.216 0.043,-0.24 0.056,-0.263C0.069,-0.286 0.082,-0.304 0.097,-0.319C0.112,-0.333 0.126,-0.34 0.141,-0.34C0.149,-0.34 0.156,-0.338 0.162,-0.333C0.168,-0.328 0.171,-0.321 0.171,-0.311C0.171,-0.302 0.166,-0.289 0.156,-0.272C0.145,-0.255 0.133,-0.235 0.12,-0.212C0.106,-0.189 0.094,-0.166 0.084,-0.142C0.073,-0.117 0.068,-0.094 0.068,-0.072C0.068,-0.051 0.072,-0.037 0.08,-0.03C0.087,-0.023 0.098,-0.019 0.113,-0.019C0.136,-0.019 0.16,-0.03 0.187,-0.053C0.214,-0.076 0.241,-0.115 0.27,-0.172L0.285,-0.156C0.262,-0.097 0.232,-0.052 0.196,-0.019C0.16,0.014 0.121,0.03 0.08,0.03ZM0.198,-0.421C0.185,-0.421 0.174,-0.424 0.164,-0.431C0.153,-0.437 0.148,-0.447 0.148,-0.46C0.148,-0.476 0.157,-0.49 0.174,-0.501C0.191,-0.512 0.209,-0.518 0.228,-0.518C0.24,-0.518 0.25,-0.515 0.259,-0.51C0.267,-0.505 0.271,-0.495 0.271,-0.481C0.271,-0.467 0.263,-0.454 0.248,-0.441C0.233,-0.428 0.216,-0.421 0.198,-0.421Z" style="fill:rgb(229,80,69);fill-rule:nonzero;stroke:rgb(229,80,69);stroke-width:0.07px;"/>
            </g>
            <g transform="matrix(30,0.0199388,-0.0199388,30,129.829,160.747)">
                <path d="M0.116,0.044C0.073,0.044 0.041,0.032 0.018,0.01C-0.006,-0.014 -0.017,-0.042 -0.017,-0.077C-0.017,-0.106 -0.01,-0.137 0.006,-0.171C0.021,-0.204 0.041,-0.235 0.066,-0.264C0.091,-0.293 0.119,-0.316 0.15,-0.334C0.181,-0.352 0.211,-0.361 0.242,-0.361C0.259,-0.361 0.276,-0.357 0.292,-0.348C0.307,-0.339 0.315,-0.321 0.315,-0.294C0.315,-0.269 0.308,-0.245 0.293,-0.223C0.278,-0.201 0.259,-0.181 0.234,-0.164C0.209,-0.147 0.182,-0.133 0.153,-0.122C0.123,-0.111 0.093,-0.103 0.063,-0.1C0.062,-0.097 0.062,-0.094 0.062,-0.092C0.061,-0.089 0.061,-0.084 0.061,-0.077C0.061,-0.074 0.062,-0.068 0.063,-0.06C0.064,-0.051 0.066,-0.042 0.071,-0.033C0.076,-0.024 0.083,-0.016 0.094,-0.009C0.105,-0.002 0.119,0.001 0.138,0.001C0.166,0.001 0.194,-0.007 0.223,-0.023C0.251,-0.038 0.278,-0.059 0.303,-0.085C0.328,-0.111 0.348,-0.14 0.365,-0.172L0.385,-0.156C0.367,-0.116 0.344,-0.081 0.316,-0.051C0.287,-0.021 0.256,0.002 0.222,0.019C0.187,0.036 0.152,0.044 0.116,0.044ZM0.074,-0.137C0.091,-0.139 0.111,-0.145 0.132,-0.155C0.153,-0.165 0.174,-0.178 0.194,-0.193C0.213,-0.208 0.229,-0.225 0.242,-0.244C0.255,-0.262 0.261,-0.28 0.261,-0.299C0.261,-0.306 0.26,-0.311 0.257,-0.314C0.254,-0.317 0.25,-0.318 0.244,-0.318C0.229,-0.318 0.213,-0.313 0.196,-0.302C0.179,-0.291 0.163,-0.276 0.147,-0.259C0.131,-0.241 0.117,-0.221 0.104,-0.2C0.091,-0.179 0.081,-0.158 0.074,-0.137Z" style="fill:rgb(229,80,69);fill-rule:nonzero;stroke:rgb(229,80,69);stroke-width:0.07px;"/>
            </g>
            <g transform="matrix(29.9247,2.1247,-2.1247,29.9247,139.837,160.704)">
                <path d="M0.179,-0.576C0.169,-0.581 0.162,-0.588 0.158,-0.596C0.153,-0.603 0.151,-0.611 0.151,-0.62C0.151,-0.633 0.154,-0.648 0.16,-0.664C0.166,-0.679 0.174,-0.693 0.184,-0.705C0.193,-0.716 0.203,-0.722 0.214,-0.722C0.222,-0.722 0.229,-0.719 0.236,-0.712C0.243,-0.705 0.246,-0.696 0.247,-0.685C0.232,-0.67 0.219,-0.653 0.206,-0.632C0.193,-0.611 0.184,-0.593 0.179,-0.576Z" style="fill:rgb(229,80,69);fill-rule:nonzero;stroke:rgb(229,80,69);stroke-width:0.07px;"/>
            </g>
            <g transform="matrix(29.9038,2.40054,-2.40054,29.9038,143.571,160.942)">
                <path d="M0.103,0.051C0.07,0.051 0.045,0.045 0.027,0.032C0.008,0.019 -0.005,0.002 -0.012,-0.018C-0.019,-0.037 -0.023,-0.057 -0.023,-0.077C-0.023,-0.098 -0.02,-0.114 -0.015,-0.126C-0.009,-0.137 -0.002,-0.146 0.006,-0.152C0.014,-0.157 0.022,-0.162 0.03,-0.165C0.037,-0.168 0.043,-0.171 0.046,-0.175C0.064,-0.194 0.082,-0.216 0.099,-0.239C0.116,-0.262 0.13,-0.286 0.143,-0.313C0.146,-0.344 0.151,-0.366 0.159,-0.378C0.167,-0.389 0.177,-0.395 0.188,-0.395C0.196,-0.395 0.202,-0.393 0.206,-0.389C0.209,-0.385 0.211,-0.38 0.212,-0.375C0.212,-0.371 0.211,-0.366 0.21,-0.361C0.208,-0.356 0.207,-0.349 0.207,-0.34C0.207,-0.32 0.212,-0.297 0.222,-0.271C0.231,-0.245 0.241,-0.218 0.251,-0.19C0.26,-0.161 0.265,-0.133 0.265,-0.105C0.265,-0.076 0.258,-0.049 0.245,-0.026C0.231,-0.002 0.212,0.017 0.188,0.031C0.164,0.044 0.136,0.051 0.103,0.051ZM0.096,0.015C0.117,0.015 0.137,0.006 0.157,-0.012C0.175,-0.03 0.185,-0.058 0.185,-0.095C0.185,-0.112 0.183,-0.131 0.18,-0.153C0.176,-0.173 0.172,-0.194 0.167,-0.215C0.162,-0.235 0.157,-0.252 0.153,-0.267C0.142,-0.25 0.131,-0.233 0.118,-0.214C0.105,-0.195 0.092,-0.18 0.081,-0.167C0.088,-0.164 0.096,-0.16 0.103,-0.153C0.11,-0.146 0.114,-0.138 0.114,-0.129C0.114,-0.118 0.107,-0.105 0.094,-0.09C0.082,-0.105 0.071,-0.112 0.06,-0.112C0.053,-0.112 0.046,-0.108 0.039,-0.101C0.032,-0.094 0.029,-0.081 0.029,-0.064C0.029,-0.044 0.035,-0.026 0.046,-0.01C0.056,0.007 0.073,0.015 0.096,0.015Z" style="fill:rgb(229,80,69);fill-rule:nonzero;stroke:rgb(229,80,69);stroke-width:0.07px;"/>
            </g>
        </g>
    </g>
</svg>
